<?xml version="1.0" encoding="UTF-8"?>
<!DOCTYPE svg PUBLIC "-//W3C//DTD SVG 1.1//EN" "http://www.w3.org/Graphics/SVG/1.1/DTD/svg11.dtd">
<svg xmlns="http://www.w3.org/2000/svg" version="1.1" width="430px" height="436px" style="shape-rendering:geometricPrecision; text-rendering:geometricPrecision; image-rendering:optimizeQuality; fill-rule:evenodd; clip-rule:evenodd" xmlns:xlink="http://www.w3.org/1999/xlink">
<g><path style="opacity:0.424" fill="#5d858b" d="M 329.5,22.5 C 331.948,21.5269 334.615,21.1936 337.5,21.5C 337.768,23.099 337.434,24.4324 336.5,25.5C 336.5,24.5 336.5,23.5 336.5,22.5C 334.167,22.5 331.833,22.5 329.5,22.5 Z"/></g>
<g><path style="opacity:0.996" fill="#0c0e10" d="M 329.5,22.5 C 331.833,22.5 334.167,22.5 336.5,22.5C 336.5,23.5 336.5,24.5 336.5,25.5C 334.771,35.7277 329.604,43.7277 321,49.5C 318.37,65.8229 314.537,81.8229 309.5,97.5C 302.978,89.7884 299.645,80.7884 299.5,70.5C 299.762,69.0222 299.429,67.6888 298.5,66.5C 297.893,66.6236 297.56,66.9569 297.5,67.5C 295.022,69.8025 292.355,71.9692 289.5,74C 290.151,81.1102 290.817,88.2769 291.5,95.5C 304.141,102.308 313.974,111.974 321,124.5C 349.015,177.484 343.681,226.817 305,272.5C 258.027,315.972 206.193,322.805 149.5,293C 99.7027,258.631 81.5361,211.798 95,152.5C 110.716,109.452 140.882,82.619 185.5,72C 213.866,65.9574 240.866,69.6241 266.5,83C 268.543,84.708 270.21,86.708 271.5,89C 275.232,90.3422 278.899,91.5088 282.5,92.5C 283.386,93.7759 284.386,93.7759 285.5,92.5C 285.376,91.8933 285.043,91.56 284.5,91.5C 279.532,86.362 274.699,81.0286 270,75.5C 264.396,72.0645 259.563,67.7311 255.5,62.5C 256.04,61.2519 256.707,60.0852 257.5,59C 264.824,59.2037 272.157,59.2037 279.5,59C 281.833,56.6667 284.167,54.3333 286.5,52C 277.371,47.0332 268.371,41.8665 259.5,36.5C 262.914,34.0426 266.414,31.7093 270,29.5C 282.006,32.2149 294.173,33.7149 306.5,34C 310.967,29.6004 315.967,25.9338 321.5,23C 324.146,22.5026 326.813,22.3359 329.5,22.5 Z"/></g>
<g><path style="opacity:1" fill="#bff2f5" d="M 324.5,27.5 C 326.527,27.3379 328.527,27.5045 330.5,28C 329.145,31.2118 327.645,34.3785 326,37.5C 322.478,40.2659 319.145,43.2659 316,46.5C 313.716,58.9228 311.049,71.2561 308,83.5C 305.346,75.0666 303.513,66.4 302.5,57.5C 301.448,57.3505 300.448,57.5172 299.5,58C 294.667,62.1667 289.833,66.3333 285,70.5C 285.543,75.0903 285.543,79.757 285,84.5C 280.755,80.2546 276.921,76.4213 273.5,73C 270.688,70.0985 267.688,67.4319 264.5,65C 269.505,64.918 274.505,64.918 279.5,65C 285.009,60.323 290.342,55.4897 295.5,50.5C 287.405,46.2829 279.405,41.7829 271.5,37C 282.66,37.8787 293.827,39.0453 305,40.5C 311.416,36.042 317.916,31.7087 324.5,27.5 Z"/></g>
<g><path style="opacity:0.063" fill="#719da2" d="M 297.5,67.5 C 297.56,66.9569 297.893,66.6236 298.5,66.5C 299.429,67.6888 299.762,69.0222 299.5,70.5C 298.833,69.5 298.167,68.5 297.5,67.5 Z"/></g>
<g><path style="opacity:1" fill="#0098cf" d="M 187.5,76.5 C 189.857,76.3367 192.19,76.5034 194.5,77C 187.787,80.2249 181.787,84.3916 176.5,89.5C 169.151,89.5215 161.818,89.6882 154.5,90C 164.905,83.8154 175.905,79.3154 187.5,76.5 Z"/></g>
<g><path style="opacity:1" fill="#00a8dd" d="M 206.5,76.5 C 208.167,76.5 209.833,76.5 211.5,76.5C 211.667,89.5043 211.5,102.504 211,115.5C 202.978,104.977 192.812,97.3102 180.5,92.5C 188.26,85.6235 196.927,80.2902 206.5,76.5 Z"/></g>
<g><path style="opacity:1" fill="#00739e" d="M 217.5,76.5 C 217.171,89.3443 217.505,102.011 218.5,114.5C 218.217,115.289 217.717,115.956 217,116.5C 216.173,102.994 216.34,89.6603 217.5,76.5 Z"/></g>
<g><path style="opacity:1" fill="#00aee1" d="M 217.5,76.5 C 218.791,76.2627 219.791,76.596 220.5,77.5C 226.454,82.1665 231.788,88.1665 236.5,95.5C 237.325,96.3857 238.325,96.719 239.5,96.5C 231.323,101.002 224.323,107.002 218.5,114.5C 217.505,102.011 217.171,89.3443 217.5,76.5 Z"/></g>
<g><path style="opacity:1" fill="#00a4d5" d="M 233.5,77.5 C 244.923,79.1451 255.923,82.9784 266.5,89C 262.163,89.7522 257.829,90.0856 253.5,90C 247.618,84.56 240.951,80.3933 233.5,77.5 Z"/></g>
<g><path style="opacity:1" fill="#7aeaf9" d="M 220.5,77.5 C 230.989,80.41 240.322,85.41 248.5,92.5C 245.361,93.5704 242.361,94.9038 239.5,96.5C 238.325,96.719 237.325,96.3857 236.5,95.5C 231.788,88.1665 226.454,82.1665 220.5,77.5 Z"/></g>
<g><path style="opacity:0.11" fill="#40a6ae" d="M 284.5,91.5 C 285.043,91.56 285.376,91.8933 285.5,92.5C 284.386,93.7759 283.386,93.7759 282.5,92.5C 283.492,92.6716 284.158,92.3382 284.5,91.5 Z"/></g>
<g><path style="opacity:1" fill="#f1a19d" d="M 148.5,97.5 C 152.702,97.1832 156.702,97.5166 160.5,98.5C 154.002,98.0815 147.668,98.7482 141.5,100.5C 143.426,98.7073 145.759,97.7073 148.5,97.5 Z"/></g>
<g><path style="opacity:1" fill="#fd3f48" d="M 160.5,98.5 C 168.798,98.9049 176.132,101.738 182.5,107C 192.063,116.395 201.396,125.895 210.5,135.5C 209.661,143.537 208.494,151.537 207,159.5C 206.936,165.541 204.102,169.041 198.5,170C 193.615,164.612 188.282,159.779 182.5,155.5C 181.167,156.167 180.167,157.167 179.5,158.5C 183.859,164.539 188.693,170.205 194,175.5C 194.507,176.996 194.007,178.163 192.5,179C 172.06,181.74 151.727,184.907 131.5,188.5C 152.295,191.293 172.962,194.793 193.5,199C 194.517,200.049 194.684,201.216 194,202.5C 188.409,207.419 183.576,212.919 179.5,219C 179.954,220.622 180.954,221.788 182.5,222.5C 188.282,218.221 193.615,213.388 198.5,208C 200.701,207.175 202.534,207.675 204,209.5C 207.815,229.371 210.648,249.371 212.5,269.5C 211.448,269.649 210.448,269.483 209.5,269C 180,240.833 151.167,212 123,182.5C 105.772,157.961 106.438,133.961 125,110.5C 129.905,106.076 135.405,102.743 141.5,100.5C 147.668,98.7482 154.002,98.0815 160.5,98.5 Z"/></g>
<g><path style="opacity:1" fill="#f4f4f5" d="M 210.5,135.5 C 201.396,125.895 192.063,116.395 182.5,107C 176.132,101.738 168.798,98.9049 160.5,98.5C 156.702,97.5166 152.702,97.1832 148.5,97.5C 165.136,92.6781 180.469,95.5114 194.5,106C 200.333,111.833 206.167,117.667 212,123.5C 212.279,127.7 211.779,131.7 210.5,135.5 Z"/></g>
<g><path style="opacity:1" fill="#fd3f48" d="M 317.5,155.5 C 315.404,168.697 309.404,179.697 299.5,188.5C 277.736,185.51 256.069,182.01 234.5,178C 233.549,177.282 233.383,176.449 234,175.5C 238.833,170 243.667,164.5 248.5,159C 247.333,157.833 246.167,156.667 245,155.5C 239.532,159.967 234.365,164.8 229.5,170C 226.608,169.459 224.108,167.959 222,165.5C 219.773,151.479 217.773,137.479 216,123.5C 221.113,118.387 226.279,113.221 231.5,108C 234.892,105.306 238.559,103.14 242.5,101.5C 262.789,94.2804 280.289,98.6137 295,114.5C 306.186,126.21 313.686,139.877 317.5,155.5 Z"/></g>
<g><path style="opacity:1" fill="#eff1f1" d="M 317.5,155.5 C 313.686,139.877 306.186,126.21 295,114.5C 280.289,98.6137 262.789,94.2804 242.5,101.5C 246.02,98.9113 250.02,97.0779 254.5,96C 282.299,92.1474 302.466,102.647 315,127.5C 318.356,136.629 319.189,145.963 317.5,155.5 Z"/></g>
<g><path style="opacity:1" fill="#00a7da" d="M 104.5,142.5 C 104.758,156.845 108.758,170.178 116.5,182.5C 109.532,183.497 102.532,183.83 95.5,183.5C 95.8156,169.238 98.8156,155.572 104.5,142.5 Z"/></g>
<g><path style="opacity:1" fill="#b0edf5" d="M 325.5,183.5 C 324.375,176.792 323.042,170.125 321.5,163.5C 322.496,156.868 323.329,150.201 324,143.5C 329.996,156.151 333.163,169.484 333.5,183.5C 330.833,183.5 328.167,183.5 325.5,183.5 Z"/></g>
<g><path style="opacity:1" fill="#bbf0f9" d="M 207.5,170.5 C 208.833,170.5 210.167,170.5 211.5,170.5C 211.5,175.5 211.5,180.5 211.5,185.5C 206.5,185.5 201.5,185.5 196.5,185.5C 198.235,179.096 201.902,174.096 207.5,170.5 Z"/></g>
<g><path style="opacity:1" fill="#04a9dc" d="M 321.5,163.5 C 323.042,170.125 324.375,176.792 325.5,183.5C 321.116,183.826 316.783,183.492 312.5,182.5C 316.351,176.469 319.351,170.136 321.5,163.5 Z"/></g>
<g><path style="opacity:1" fill="#b4eef3" d="M 216.5,170.5 C 225.088,172.089 230.421,177.089 232.5,185.5C 227.167,185.5 221.833,185.5 216.5,185.5C 216.5,180.5 216.5,175.5 216.5,170.5 Z"/></g>
<g><path style="opacity:1" fill="#407082" d="M 313.5,189.5 C 319.979,188.509 326.646,188.176 333.5,188.5C 333.815,192.371 333.482,196.038 332.5,199.5C 332.5,196.167 332.5,192.833 332.5,189.5C 330.167,189.5 327.833,189.5 325.5,189.5C 321.5,189.5 317.5,189.5 313.5,189.5 Z"/></g>
<g><path style="opacity:1" fill="#00a8dc" d="M 95.5,188.5 C 102.167,188.5 108.833,188.5 115.5,188.5C 114.208,204.497 114.208,220.497 115.5,236.5C 112.428,236.817 109.428,236.484 106.5,235.5C 99.8418,220.534 96.1752,204.867 95.5,188.5 Z"/></g>
<g><path style="opacity:1" fill="#00a8da" d="M 313.5,189.5 C 317.5,189.5 321.5,189.5 325.5,189.5C 325.5,201.833 325.5,214.167 325.5,226.5C 324.801,229.573 323.801,232.573 322.5,235.5C 319.232,236.487 315.898,236.82 312.5,236.5C 313.402,220.855 313.735,205.188 313.5,189.5 Z"/></g>
<g><path style="opacity:1" fill="#b4f0f9" d="M 196.5,190.5 C 201.5,190.5 206.5,190.5 211.5,190.5C 211.5,195.833 211.5,201.167 211.5,206.5C 202.528,204.855 197.528,199.522 196.5,190.5 Z"/></g>
<g><path style="opacity:1" fill="#b3edf1" d="M 216.5,190.5 C 221.833,190.5 227.167,190.5 232.5,190.5C 230.861,199.473 225.527,204.806 216.5,206.5C 216.5,201.167 216.5,195.833 216.5,190.5 Z"/></g>
<g><path style="opacity:1" fill="#00a7dc" d="M 167.5,235.5 C 152.342,236.496 137.009,236.83 121.5,236.5C 118.973,220.839 118.973,205.173 121.5,189.5C 136.521,205.188 151.854,220.521 167.5,235.5 Z"/></g>
<g><path style="opacity:1" fill="#b8f1f9" d="M 325.5,189.5 C 327.833,189.5 330.167,189.5 332.5,189.5C 332.5,192.833 332.5,196.167 332.5,199.5C 331.755,209.029 329.422,218.029 325.5,226.5C 325.5,214.167 325.5,201.833 325.5,189.5 Z"/></g>
<g><path style="opacity:1" fill="#00a6dc" d="M 306.5,236.5 C 290.991,236.83 275.658,236.496 260.5,235.5C 275.994,220.839 290.994,205.673 305.5,190C 306.448,189.517 307.448,189.351 308.5,189.5C 308.667,202.504 308.5,215.504 308,228.5C 307.817,231.365 307.317,234.031 306.5,236.5 Z"/></g>
<g><path style="opacity:1" fill="#fa3e46" d="M 217.5,269.5 C 216.532,267.393 216.198,265.059 216.5,262.5C 218.018,244.704 220.518,227.037 224,209.5C 225.263,207.203 227.097,206.37 229.5,207C 234.02,213.02 239.353,218.187 245.5,222.5C 247.046,221.788 248.046,220.622 248.5,219C 244.057,212.886 239.224,207.053 234,201.5C 233.493,200.004 233.993,198.837 235.5,198C 256.332,193.738 277.332,191.071 298.5,190C 272.627,217.707 245.627,244.207 217.5,269.5 Z"/></g>
<g><path style="opacity:1" fill="#003e5c" d="M 167.5,235.5 C 168.043,235.56 168.376,235.893 168.5,236.5C 152.672,237.827 137.005,237.827 121.5,236.5C 137.009,236.83 152.342,236.496 167.5,235.5 Z"/></g>
<g><path style="opacity:1" fill="#00415d" d="M 260.5,235.5 C 275.658,236.496 290.991,236.83 306.5,236.5C 290.995,237.827 275.328,237.827 259.5,236.5C 259.624,235.893 259.957,235.56 260.5,235.5 Z"/></g>
<g><path style="opacity:1" fill="#004c62" d="M 259.5,242.5 C 274.991,241.504 290.658,241.17 306.5,241.5C 306.737,242.791 306.404,243.791 305.5,244.5C 290.536,242.516 275.203,241.849 259.5,242.5 Z"/></g>
<g><path style="opacity:1" fill="#005270" d="M 175.5,242.5 C 174.521,245.625 174.187,248.958 174.5,252.5C 173.192,248.981 173.192,245.315 174.5,241.5C 175.107,241.624 175.44,241.957 175.5,242.5 Z"/></g>
<g><path style="opacity:1" fill="#009dd4" d="M 310.5,242.5 C 313.247,242.187 315.914,242.52 318.5,243.5C 315.073,250.023 310.906,256.023 306,261.5C 307.642,255.264 309.142,248.931 310.5,242.5 Z"/></g>
<g><path style="opacity:1" fill="#00a8db" d="M 122.5,242.5 C 138.167,242.5 153.833,242.5 169.5,242.5C 168.321,257.598 171.321,271.765 178.5,285C 154.105,289.386 136.939,280.219 127,257.5C 125.033,252.63 123.533,247.63 122.5,242.5 Z"/></g>
<g><path style="opacity:1" fill="#00a6d9" d="M 259.5,242.5 C 275.203,241.849 290.536,242.516 305.5,244.5C 302.267,261.494 293.267,274.327 278.5,283C 270.123,286.298 261.457,287.298 252.5,286C 251.572,285.612 250.905,284.945 250.5,284C 256.336,270.834 259.336,257.001 259.5,242.5 Z"/></g>
<g><path style="opacity:1" fill="#00a9de" d="M 175.5,242.5 C 186.173,253.839 197.173,264.839 208.5,275.5C 205.652,278.093 202.319,279.926 198.5,281C 193.526,282.497 188.526,283.497 183.5,284C 178.247,274.157 175.247,263.657 174.5,252.5C 174.187,248.958 174.521,245.625 175.5,242.5 Z"/></g>
<g><path style="opacity:1" fill="#0099cb" d="M 110.5,242.5 C 112.833,242.5 115.167,242.5 117.5,242.5C 118.932,248.607 120.432,254.607 122,260.5C 117.127,255.135 113.294,249.135 110.5,242.5 Z"/></g>
<g><path style="opacity:1" fill="#00a6da" d="M 251.5,243.5 C 254.473,257.341 252.306,270.674 245,283.5C 236.135,283.148 227.635,280.815 219.5,276.5C 219.167,276.167 218.833,275.833 218.5,275.5C 230.155,265.511 241.155,254.845 251.5,243.5 Z"/></g>
<g><path style="opacity:1" fill="#5c0914" d="M 216.5,262.5 C 216.198,265.059 216.532,267.393 217.5,269.5C 217.44,270.043 217.107,270.376 216.5,270.5C 215.2,267.691 215.2,265.024 216.5,262.5 Z"/></g>
<g><path style="opacity:1" fill="#00a7d9" d="M 209.5,281.5 C 211.465,288.76 212.132,296.427 211.5,304.5C 201.933,302.048 193.933,297.048 187.5,289.5C 195.292,287.794 202.626,285.128 209.5,281.5 Z"/></g>
<g><path style="opacity:1" fill="#00a8dc" d="M 216.5,281.5 C 224.329,284.611 232.329,287.444 240.5,290C 234.356,297.992 226.356,302.825 216.5,304.5C 216.5,296.833 216.5,289.167 216.5,281.5 Z"/></g>
<g><path style="opacity:1" fill="#00a4d8" d="M 246.5,290.5 C 254.838,291.631 263.171,291.798 271.5,291C 258.963,297.957 245.63,302.291 231.5,304C 237.292,300.375 242.292,295.875 246.5,290.5 Z"/></g>
<g><path style="opacity:1" fill="#009ace" d="M 173.5,290.5 C 176.187,290.336 178.854,290.503 181.5,291C 186.928,296.431 192.928,301.098 199.5,305C 185.373,303.291 172.039,298.958 159.5,292C 164.351,291.826 169.018,291.326 173.5,290.5 Z"/></g>
<g><path style="opacity:0.997" fill="#17191a" d="M 41.5,355.5 C 46.6813,355.631 51.6813,355.631 56.5,355.5C 62.0751,356.316 63.7418,359.316 61.5,364.5C 55.8722,365.495 50.2055,365.829 44.5,365.5C 44.6666,380.837 44.4999,396.17 44,411.5C 40.6667,414.167 37.3333,414.167 34,411.5C 33.6667,396.167 33.3333,380.833 33,365.5C 32.1074,366.081 31.1074,366.415 30,366.5C 25.3553,366.285 21.0219,365.285 17,363.5C 16.2419,361.231 16.4086,359.064 17.5,357C 25.6772,356.829 33.6772,356.329 41.5,355.5 Z"/></g>
<g><path style="opacity:0.999" fill="#0a0d10" d="M 221.5,356.5 C 223.857,356.337 226.19,356.503 228.5,357C 229.24,358.785 229.907,360.618 230.5,362.5C 229.173,378.03 229.173,393.53 230.5,409C 228.222,413.437 224.722,414.603 220,412.5C 219.833,403.333 219.667,394.167 219.5,385C 219.526,375.271 220.193,365.771 221.5,356.5 Z"/></g>
<g><path style="opacity:0.994" fill="#101214" d="M 287.5,412.5 C 286.854,401.227 286.187,389.894 285.5,378.5C 284.893,378.624 284.56,378.957 284.5,379.5C 280.678,387.812 276.845,396.145 273,404.5C 270,405.833 267,405.833 264,404.5C 259.628,397.09 255.795,389.423 252.5,381.5C 252.217,380.711 251.717,380.044 251,379.5C 250.5,389.828 250.334,400.161 250.5,410.5C 250.423,411.75 249.756,412.583 248.5,413C 246.288,413.789 244.288,413.622 242.5,412.5C 241.514,394.243 241.18,375.91 241.5,357.5C 242.793,356.842 244.293,356.508 246,356.5C 248.352,356.305 250.352,356.972 252,358.5C 257.318,369.136 262.651,379.802 268,390.5C 273.34,379.798 278.673,369.131 284,358.5C 285.648,356.972 287.648,356.305 290,356.5C 292.352,356.305 294.352,356.972 296,358.5C 296.667,375.833 296.667,393.167 296,410.5C 295.5,411.667 294.667,412.5 293.5,413C 291.288,413.789 289.288,413.622 287.5,412.5 Z"/></g>
<g><path style="opacity:0.995" fill="#0e1011" d="M 369.5,379.5 C 366.167,379.5 362.833,379.5 359.5,379.5C 359.175,387.352 359.508,395.018 360.5,402.5C 363.305,403.319 366.305,403.819 369.5,404C 370.444,406.719 370.777,409.552 370.5,412.5C 365.139,413.864 359.805,413.698 354.5,412C 353.29,410.961 352.29,409.794 351.5,408.5C 351.5,398.833 351.5,389.167 351.5,379.5C 349.833,379.5 348.167,379.5 346.5,379.5C 344.631,377.365 343.964,374.698 344.5,371.5C 346.5,371.5 348.5,371.5 350.5,371.5C 350.335,368.15 350.502,364.817 351,361.5C 353.634,359.406 356.467,359.073 359.5,360.5C 360.489,364.107 360.823,367.774 360.5,371.5C 363.85,371.335 367.183,371.502 370.5,372C 371.097,373.062 371.43,374.228 371.5,375.5C 371.66,377.355 370.993,378.688 369.5,379.5 Z"/></g>
<g><path style="opacity:0.998" fill="#111315" d="M 67.5,371.5 C 74.8333,371.5 82.1667,371.5 89.5,371.5C 89.7771,374.448 89.4438,377.281 88.5,380C 83.5821,380.195 78.7488,380.695 74,381.5C 73.6667,391.833 73.3333,402.167 73,412.5C 70,413.833 67,413.833 64,412.5C 63.3333,400.167 63.3333,387.833 64,375.5C 65.3756,374.295 66.5423,372.962 67.5,371.5 Z"/></g>
<g><path style="opacity:0.994" fill="#111415" d="M 97.5,389.5 C 104.5,389.5 111.5,389.5 118.5,389.5C 118.81,386.287 118.477,383.287 117.5,380.5C 113.154,380.334 108.821,380.501 104.5,381C 102.632,385.981 99.4651,386.815 95,383.5C 93.5568,378.788 94.7235,374.955 98.5,372C 106.833,371.333 115.167,371.333 123.5,372C 124.333,372.833 125.167,373.667 126,374.5C 127.128,380.897 127.628,387.397 127.5,394C 127.167,399.833 126.833,405.667 126.5,411.5C 125.5,412 124.5,412.5 123.5,413C 114.77,413.876 106.104,413.542 97.5,412C 94.0898,408.954 92.7565,405.121 93.5,400.5C 92.7222,395.914 94.0556,392.247 97.5,389.5 Z M 106.5,395.5 C 110.167,395.5 113.833,395.5 117.5,395.5C 117.5,398.167 117.5,400.833 117.5,403.5C 112.833,403.5 108.167,403.5 103.5,403.5C 103.5,401.167 103.5,398.833 103.5,396.5C 104.791,396.737 105.791,396.404 106.5,395.5 Z"/></g>
<g><path style="opacity:0.987" fill="#151819" d="M 132.5,371.5 C 135.777,371.216 138.943,371.549 142,372.5C 145.333,381.833 148.667,391.167 152,400.5C 154.939,391.015 158.273,381.681 162,372.5C 165.333,371.167 168.667,371.167 172,372.5C 167.793,385.609 162.96,398.609 157.5,411.5C 153.479,413.481 149.646,413.481 146,411.5C 141.028,399.056 136.195,386.556 131.5,374C 131.743,373.098 132.077,372.265 132.5,371.5 Z"/></g>
<g><path style="opacity:0.995" fill="#0f1113" d="M 207.5,394.5 C 200.167,394.5 192.833,394.5 185.5,394.5C 185.19,397.713 185.523,400.713 186.5,403.5C 191.167,403.5 195.833,403.5 200.5,403.5C 200.196,400.767 201.363,399.101 204,398.5C 210.092,398.646 212.092,401.646 210,407.5C 209.167,409.667 207.667,411.167 205.5,412C 198.63,412.221 191.797,412.721 185,413.5C 182.485,412.885 180.152,411.885 178,410.5C 176.377,398.93 176.043,387.264 177,375.5C 178.167,374.333 179.333,373.167 180.5,372C 189.215,371.196 197.882,371.363 206.5,372.5C 209.83,376.159 211.163,380.492 210.5,385.5C 210.333,387.833 210.167,390.167 210,392.5C 209.583,393.756 208.75,394.423 207.5,394.5 Z M 186.5,380.5 C 190.884,380.174 195.217,380.508 199.5,381.5C 200.374,383.747 200.708,386.08 200.5,388.5C 195.833,388.5 191.167,388.5 186.5,388.5C 186.5,385.833 186.5,383.167 186.5,380.5 Z"/></g>
<g><path style="opacity:0.995" fill="#111315" d="M 309.5,371.5 C 317.507,371.334 325.507,371.5 333.5,372C 335.378,373.543 336.878,375.376 338,377.5C 338.667,388.167 338.667,398.833 338,409.5C 337.167,410.333 336.333,411.167 335.5,412C 327.964,412.216 320.464,412.716 313,413.5C 308.761,412.926 306.094,410.592 305,406.5C 304.112,401.382 304.445,396.382 306,391.5C 306.903,390.299 308.069,389.465 309.5,389C 315.749,388.191 321.916,388.358 328,389.5C 328.498,386.518 328.665,383.518 328.5,380.5C 323.786,380.353 319.119,380.686 314.5,381.5C 314.67,382.822 314.337,383.989 313.5,385C 305.944,386.085 303.444,382.919 306,375.5C 307.376,374.295 308.542,372.962 309.5,371.5 Z M 314.5,396.5 C 319.167,396.5 323.833,396.5 328.5,396.5C 328.5,398.833 328.5,401.167 328.5,403.5C 323.833,403.5 319.167,403.5 314.5,403.5C 314.5,401.167 314.5,398.833 314.5,396.5 Z"/></g>
<g><path style="opacity:0.995" fill="#141718" d="M 381.5,371.5 C 389.507,371.334 397.507,371.5 405.5,372C 407.667,372.833 409.167,374.333 410,376.5C 410.667,382.167 410.667,387.833 410,393.5C 409.5,394 409,394.5 408.5,395C 401.167,395.333 393.833,395.667 386.5,396C 387.435,398.381 387.768,400.881 387.5,403.5C 391.884,403.826 396.217,403.492 400.5,402.5C 401.246,401.264 401.579,399.93 401.5,398.5C 404.448,398.223 407.281,398.556 410,399.5C 411.494,404.526 410.327,408.692 406.5,412C 399.582,413.551 392.582,413.884 385.5,413C 382.542,412.771 380.042,411.604 378,409.5C 376.381,398.932 376.048,388.265 377,377.5C 377.979,375.032 379.479,373.032 381.5,371.5 Z M 387.5,380.5 C 391.833,380.5 396.167,380.5 400.5,380.5C 400.5,383.167 400.5,385.833 400.5,388.5C 395.833,388.5 391.167,388.5 386.5,388.5C 386.279,385.721 386.612,383.054 387.5,380.5 Z"/></g>
<g><path style="opacity:0.584" fill="#314650" d="M 284.5,379.5 C 284.56,378.957 284.893,378.624 285.5,378.5C 286.187,389.894 286.854,401.227 287.5,412.5C 285.841,401.705 284.841,390.705 284.5,379.5 Z"/></g>
<g><path style="opacity:0.506" fill="#516977" d="M 117.5,380.5 C 118.477,383.287 118.81,386.287 118.5,389.5C 111.5,389.5 104.5,389.5 97.5,389.5C 103.979,388.509 110.646,388.176 117.5,388.5C 117.5,385.833 117.5,383.167 117.5,380.5 Z"/></g>
<g><path style="opacity:0.6" fill="#273742" d="M 241.5,357.5 C 241.18,375.91 241.514,394.243 242.5,412.5C 241.168,403.692 240.502,394.525 240.5,385C 240.5,375.66 240.834,366.494 241.5,357.5 Z"/></g>
<g><path style="opacity:0.616" fill="#3d454c" d="M 346.5,379.5 C 348.167,379.5 349.833,379.5 351.5,379.5C 351.5,389.167 351.5,398.833 351.5,408.5C 350.506,399.348 350.173,390.015 350.5,380.5C 348.901,380.768 347.568,380.434 346.5,379.5 Z"/></g>
<g><path style="opacity:0.443" fill="#4f6771" d="M 207.5,394.5 C 200.687,395.491 193.687,395.825 186.5,395.5C 186.5,398.167 186.5,400.833 186.5,403.5C 185.523,400.713 185.19,397.713 185.5,394.5C 192.833,394.5 200.167,394.5 207.5,394.5 Z"/></g>
<g><path style="opacity:0.447" fill="#4d727f" d="M 369.5,379.5 C 366.713,380.477 363.713,380.81 360.5,380.5C 360.5,387.833 360.5,395.167 360.5,402.5C 359.508,395.018 359.175,387.352 359.5,379.5C 362.833,379.5 366.167,379.5 369.5,379.5 Z"/></g>
<g><path style="opacity:0.427" fill="#6b8088" d="M 314.5,396.5 C 319.305,395.513 324.305,395.179 329.5,395.5C 329.806,398.385 329.473,401.052 328.5,403.5C 328.5,401.167 328.5,398.833 328.5,396.5C 323.833,396.5 319.167,396.5 314.5,396.5 Z"/></g>
<g><path style="opacity:0.227" fill="#7c9ca8" d="M 252.5,381.5 C 251.833,391.167 251.167,400.833 250.5,410.5C 250.334,400.161 250.5,389.828 251,379.5C 251.717,380.044 252.217,380.711 252.5,381.5 Z"/></g>
</svg>
